<svg width="65" height="68" viewBox="0 0 65 68" fill="none" xmlns="http://www.w3.org/2000/svg">
<path d="M6.73081 16.4119L32.5362 1.30286L58.564 16.4683V36.5949L53.3918 49.9563L32.5918 62.3029L11.6805 49.8999L6.56396 36.764L6.73081 16.4119Z" stroke="url(#paint0_linear_58_2)" stroke-width="2.25"/>
<path d="M28.564 66.3029L18.0431 59.8257L18.0988 35.7758L0.563965 25.525L0.619631 13.3029L28.564 29.6365V66.3029Z" fill="url(#paint1_linear_58_2)" stroke="url(#paint2_linear_58_2)" stroke-width="1.125"/>
<path d="M35.564 66.3029L46.0848 59.8257L46.0292 35.7758L63.564 25.525L63.5083 13.3029L35.564 29.6365V66.3029Z" fill="url(#paint3_linear_58_2)" stroke="url(#paint4_linear_58_2)" stroke-width="1.125"/>
<path d="M11.564 39.8154L0.563965 33.3029V50.4285L11.564 57.3029V39.8154Z" fill="url(#paint5_linear_58_2)" stroke="url(#paint6_linear_58_2)" stroke-width="1.125"/>
<path d="M52.564 39.8154L63.564 33.3029V50.4285L52.564 57.3029V39.8154Z" fill="url(#paint7_linear_58_2)" stroke="url(#paint8_linear_58_2)" stroke-width="1.125"/>
<defs>
<linearGradient id="paint0_linear_58_2" x1="32.564" y1="1.30286" x2="32.564" y2="62.3029" gradientUnits="userSpaceOnUse">
<stop stop-color="#CB3CFF"/>
<stop offset="1" stop-color="#CB3CFF"/>
</linearGradient>
<linearGradient id="paint1_linear_58_2" x1="14.564" y1="13.3029" x2="14.564" y2="66.3029" gradientUnits="userSpaceOnUse">
<stop offset="0.490385" stop-color="#CB3CFF"/>
<stop offset="1" stop-color="#CB3CFF"/>
</linearGradient>
<linearGradient id="paint2_linear_58_2" x1="14.564" y1="13.3029" x2="14.564" y2="66.3029" gradientUnits="userSpaceOnUse">
<stop stop-color="#CB3CFF"/>
<stop offset="1" stop-color="#3E1278"/>
</linearGradient>
<linearGradient id="paint3_linear_58_2" x1="49.564" y1="13.3029" x2="49.564" y2="66.3029" gradientUnits="userSpaceOnUse">
<stop offset="0.528846" stop-color="#CB3CFF"/>
<stop offset="1" stop-color="#CB3CFF"/>
</linearGradient>
<linearGradient id="paint4_linear_58_2" x1="49.564" y1="13.3029" x2="49.564" y2="66.3029" gradientUnits="userSpaceOnUse">
<stop stop-color="#CB3CFF"/>
<stop offset="1" stop-color="#3E1278"/>
</linearGradient>
<linearGradient id="paint5_linear_58_2" x1="6.06396" y1="33.3029" x2="6.06396" y2="57.3029" gradientUnits="userSpaceOnUse">
<stop stop-color="#CB3CFF"/>
<stop offset="1" stop-color="#CB3CFF"/>
</linearGradient>
<linearGradient id="paint6_linear_58_2" x1="6.06396" y1="33.3029" x2="6.06396" y2="57.3029" gradientUnits="userSpaceOnUse">
<stop stop-color="#CB3CFF"/>
<stop offset="1" stop-color="#CB3CFF"/>
</linearGradient>
<linearGradient id="paint7_linear_58_2" x1="58.064" y1="33.3029" x2="58.064" y2="57.3029" gradientUnits="userSpaceOnUse">
<stop stop-color="#CB3CFF"/>
<stop offset="1" stop-color="#CB3CFF"/>
</linearGradient>
<linearGradient id="paint8_linear_58_2" x1="58.064" y1="33.3029" x2="58.064" y2="57.3029" gradientUnits="userSpaceOnUse">
<stop stop-color="#CB3CFF"/>
<stop offset="1" stop-color="#CB3CFF"/>
</linearGradient>
</defs>
</svg>
